{"accessors":[{"bufferView":2,"componentType":5126,"count":4240,"max":[0.1379680037498474,0.2158910036087036,1.865967035293579],"min":[-0.23857399821281433,-0.19213999807834625,1.200024962425232],"type":"VEC3"},{"bufferView":2,"byteOffset":50880,"componentType":5126,"count":4240,"max":[0.9949264526367188,0.9975248575210571,0.9991572499275208],"min":[-0.9997864365577698,-0.9998332858085632,-0.9999375343322754],"type":"VEC3"},{"bufferView":1,"componentType":5126,"count":4240,"max":[0.9906629920005798,0.9917060136795044],"min":[0.01123099960386753,0.018983999267220497],"type":"VEC2"},{"bufferView":0,"componentType":5125,"count":21888,"type":"SCALAR"},{"bufferView":2,"byteOffset":101760,"componentType":5126,"count":9186,"max":[0.3814150094985962,0.7289909720420837,1.3561580181121826],"min":[-0.9582570195198059,-0.4470309913158417,0.3827280104160309],"type":"VEC3"},{"bufferView":2,"byteOffset":211992,"componentType":5126,"count":9186,"max":[0.9995854496955872,0.9998403191566467,0.9993698596954346],"min":[-0.9998137354850769,-0.9995381236076355,-0.9996266961097717],"type":"VEC3"},{"bufferView":1,"byteOffset":33920,"componentType":5126,"count":9186,"max":[0.9881690144538879,0.9833369851112366],"min":[0.01220299955457449,0.012365000322461128],"type":"VEC2"},{"bufferView":0,"byteOffset":87552,"componentType":5125,"count":50880,"type":"SCALAR"},{"bufferView":2,"byteOffset":322224,"componentType":5126,"count":980,"max":[0.007732999976724386,0.024251999333500862,1.5012600421905518],"min":[-0.2280769944190979,-0.14959000051021576,1.3498929738998413],"type":"VEC3"},{"bufferView":2,"byteOffset":333984,"componentType":5126,"count":980,"max":[0.9989405870437622,0.999738872051239,0.9931499361991882],"min":[-0.9997921586036682,-0.9980506896972656,-0.9996125102043152],"type":"VEC3"},{"bufferView":1,"byteOffset":107408,"componentType":5126,"count":980,"max":[1.4879529476165771,1.482442021369934],"min":[-0.6901569962501526,-0.21961000561714172],"type":"VEC2"},{"bufferView":0,"byteOffset":291072,"componentType":5125,"count":5376,"type":"SCALAR"},{"bufferView":2,"byteOffset":345744,"componentType":5126,"count":2050,"max":[-0.5908169746398926,-0.37160900235176086,1.4497259855270386],"min":[-0.9102029800415039,-0.690995991230011,1.1269429922103882],"type":"VEC3"},{"bufferView":2,"byteOffset":370344,"componentType":5126,"count":2050,"max":[0.999850332736969,0.999850332736969,1],"min":[-0.999850332736969,-0.999850332736969,-1],"type":"VEC3"},{"bufferView":1,"byteOffset":115248,"componentType":5126,"count":2050,"max":[0.9853190183639526,0.9830809831619263],"min":[0.025533000007271767,0.022431999444961548],"type":"VEC2"},{"bufferView":0,"byteOffset":312576,"componentType":5125,"count":11904,"type":"SCALAR"},{"bufferView":2,"byteOffset":394944,"componentType":5126,"count":64,"max":[1.4821319580078125,1.4821319580078125,0],"min":[-1.4821319580078125,-1.4821319580078125,0],"type":"VEC3"},{"bufferView":2,"byteOffset":395712,"componentType":5126,"count":64,"max":[0,0,1],"min":[0,0,1],"type":"VEC3"},{"bufferView":1,"byteOffset":131648,"componentType":5126,"count":64,"max":[0.8656010031700134,0.8656020164489746],"min":[0.13439899682998657,0.13439899682998657],"type":"VEC2"},{"bufferView":0,"byteOffset":360192,"componentType":5125,"count":186,"type":"SCALAR"},{"bufferView":2,"byteOffset":396480,"componentType":5126,"count":4906,"max":[0.5329650044441223,0.474590003490448,0.7594450116157532],"min":[-0.48815199732780457,-0.3220359981060028,-0.010541999712586403],"type":"VEC3"},{"bufferView":2,"byteOffset":455352,"componentType":5126,"count":4906,"max":[0.9999756813049316,0.9987554550170898,0.9996780753135681],"min":[-0.9991757869720459,-0.9997656941413879,-0.9999322891235352],"type":"VEC3"},{"bufferView":1,"byteOffset":132160,"componentType":5126,"count":4906,"max":[0.8676909804344177,0.8887760043144226],"min":[0.006262999959290028,0.006262999959290028],"type":"VEC2"},{"bufferView":0,"byteOffset":360936,"componentType":5125,"count":26496,"type":"SCALAR"},{"bufferView":2,"byteOffset":514224,"componentType":5126,"count":4600,"max":[0.413349986076355,0.5492720007896423,1.5790040493011475],"min":[-0.27883198857307434,-0.08047600090503693,1.0461339950561523],"type":"VEC3"},{"bufferView":2,"byteOffset":569424,"componentType":5126,"count":4600,"max":[0.9998635649681091,0.9949944019317627,0.9988003373146057],"min":[-0.9996448159217834,-0.9995939135551453,-0.999661386013031],"type":"VEC3"},{"bufferView":1,"byteOffset":171408,"componentType":5126,"count":4600,"max":[0.9461129903793335,0.9431809782981873],"min":[0.006262999959290028,0.006262999959290028],"type":"VEC2"},{"bufferView":0,"byteOffset":466920,"componentType":5125,"count":24552,"type":"SCALAR"},{"bufferView":2,"byteOffset":624624,"componentType":5126,"count":7566,"max":[0.1392509937286377,0.21229299902915955,1.2887400388717651],"min":[-0.18786300718784332,-0.16686700284481049,0.8374750018119812],"type":"VEC3"},{"bufferView":2,"byteOffset":715416,"componentType":5126,"count":7566,"max":[0.9997907280921936,0.999453604221344,0.99994957447052],"min":[-0.9994679093360901,-0.9999607801437378,-0.9871631860733032],"type":"VEC3"},{"bufferView":1,"byteOffset":208208,"componentType":5126,"count":7566,"max":[0.993736982345581,0.9880139827728271],"min":[0.006262999959290028,0.006262999959290028],"type":"VEC2"},{"bufferView":0,"byteOffset":565128,"componentType":5125,"count":38016,"type":"SCALAR"},{"bufferView":2,"byteOffset":806208,"componentType":5126,"count":1333,"max":[0.46903398633003235,0.2037069946527481,1.3436249494552612],"min":[-0.5579140186309814,-0.3237819969654083,0.895488977432251],"type":"VEC3"},{"bufferView":2,"byteOffset":822204,"componentType":5126,"count":1333,"max":[0.9996379017829895,0.9997219443321228,0.9999505281448364],"min":[-0.8954504728317261,-0.9707869291305542,-0.9976065754890442],"type":"VEC3"},{"bufferView":1,"byteOffset":268736,"componentType":5126,"count":1333,"max":[0.9870799779891968,0.9357990026473999],"min":[0.006262999959290028,0.28810399770736694],"type":"VEC2"},{"bufferView":0,"byteOffset":717192,"componentType":5125,"count":6912,"type":"SCALAR"},{"bufferView":2,"byteOffset":838200,"componentType":5126,"count":882,"max":[0.15637700259685516,0.41902199387550354,0.37403300404548645],"min":[-0.332271009683609,0.060568999499082565,0.26930999755859375],"type":"VEC3"},{"bufferView":2,"byteOffset":848784,"componentType":5126,"count":882,"max":[0.9983236789703369,0.9987398982048035,0.9968398213386536],"min":[-0.9993915557861328,-0.9998443722724915,-0.999018132686615],"type":"VEC3"},{"bufferView":1,"byteOffset":279400,"componentType":5126,"count":882,"max":[0.875,1],"min":[0.125,0],"type":"VEC2"},{"bufferView":0,"byteOffset":744840,"componentType":5125,"count":4608,"type":"SCALAR"}],"asset":{"extras":{"author":"Gianmarco (https://sketchfab.com/GianmArt)","license":"CC-BY-4.0 (http://creativecommons.org/licenses/by/4.0/)","source":"https://sketchfab.com/3d-models/lucario-32ab2458321e495084fe3bc3b3bf6a91","title":"Lucario"},"generator":"Sketchfab-12.67.0","version":"2.0"},"bufferViews":[{"buffer":0,"byteLength":763272,"name":"floatBufferViews","target":34963},{"buffer":0,"byteLength":286456,"byteOffset":763272,"byteStride":8,"name":"floatBufferViews","target":34962},{"buffer":0,"byteLength":859368,"byteOffset":1049728,"byteStride":12,"name":"floatBufferViews","target":34962}],"buffers":[{"byteLength":1909096,"uri":"data:application/octet-stream;base64,"}],"images":[{"uri":"data:application/octet-stream;base64,"},{"uri":"data:application/octet-stream;base64,"},{"uri":"data:application/octet-stream;base64,"},{"uri":"data:application/octet-stream;base64,"},{"uri":"data:application/octet-stream;base64,"},{"uri":"data:application/octet-stream;base64,"},{"uri":"data:application/octet-stream;base64,"}],"materials":[{"doubleSided":true,"name":"Material","pbrMetallicRoughness":{"baseColorTexture":{"index":0},"metallicFactor":0,"metallicRoughnessTexture":{"index":1}}},{"doubleSided":true,"name":"Material.001","pbrMetallicRoughness":{"baseColorTexture":{"index":2},"metallicFactor":0,"roughnessFactor":0.6}},{"doubleSided":true,"name":"Material.002","pbrMetallicRoughness":{"baseColorTexture":{"index":2},"metallicFactor":0,"roughnessFactor":0.6}},{"doubleSided":true,"name":"Material.005","pbrMetallicRoughness":{"baseColorTexture":{"index":3},"metallicFactor":0,"roughnessFactor":0.6}},{"doubleSided":true,"name":"Material.006","pbrMetallicRoughness":{"baseColorTexture":{"index":4},"metallicFactor":0}},{"doubleSided":true,"name":"Material.007","pbrMetallicRoughness":{"metallicFactor":0,"roughnessFactor":0.6}},{"doubleSided":true,"emissiveFactor":[1,1,1],"emissiveTexture":{"index":5},"name":"Material.009","pbrMetallicRoughness":{"baseColorTexture":{"index":5},"metallicFactor":0}},{"alphaMode":"BLEND","doubleSided":true,"name":"Material.010","pbrMetallicRoughness":{"baseColorTexture":{"index":6},"metallicFactor":0,"roughnessFactor":0.6}},{"doubleSided":true,"name":"Material.011","pbrMetallicRoughness":{"baseColorFactor":[1,0.33108273651581677,0.33108273651581677,1],"metallicFactor":0,"roughnessFactor":0.6}},{"doubleSided":true,"name":"Material.024","pbrMetallicRoughness":{"baseColorTexture":{"index":2},"metallicFactor":0,"roughnessFactor":0.6}}],"meshes":[{"name":"Object_0","primitives":[{"attributes":{"NORMAL":1,"POSITION":0,"TEXCOORD_0":2},"indices":3,"material":0,"mode":4}]},{"name":"Object_1","primitives":[{"attributes":{"NORMAL":5,"POSITION":4,"TEXCOORD_0":6},"indices":7,"material":4,"mode":4}]},{"name":"Object_2","primitives":[{"attributes":{"NORMAL":9,"POSITION":8,"TEXCOORD_0":10},"indices":11,"material":3,"mode":4}]},{"name":"Object_3","primitives":[{"attributes":{"NORMAL":13,"POSITION":12,"TEXCOORD_0":14},"indices":15,"material":6,"mode":4}]},{"name":"Object_4","primitives":[{"attributes":{"NORMAL":17,"POSITION":16,"TEXCOORD_0":18},"indices":19,"material":7,"mode":4}]},{"name":"Object_5","primitives":[{"attributes":{"NORMAL":21,"POSITION":20,"TEXCOORD_0":22},"indices":23,"material":9,"mode":4}]},{"name":"Object_6","primitives":[{"attributes":{"NORMAL":25,"POSITION":24,"TEXCOORD_0":26},"indices":27,"material":1,"mode":4}]},{"name":"Object_7","primitives":[{"attributes":{"NORMAL":29,"POSITION":28,"TEXCOORD_0":30},"indices":31,"material":2,"mode":4}]},{"name":"Object_8","primitives":[{"attributes":{"NORMAL":33,"POSITION":32,"TEXCOORD_0":34},"indices":35,"material":5,"mode":4}]},{"name":"Object_9","primitives":[{"attributes":{"NORMAL":37,"POSITION":36,"TEXCOORD_0":38},"indices":39,"material":8,"mode":4}]}],"nodes":[{"children":[1],"matrix":[1,0,0,0,0,2.220446049250313e-16,-1,0,0,1,2.220446049250313e-16,0,0,0,0,1],"name":"Sketchfab_model"},{"children":[2,3,4,5,6,7,8,9,10,11],"name":"lucario sketchfab obj.obj.cleaner.materialmerger.gles"},{"mesh":0,"name":"Object_2"},{"mesh":1,"name":"Object_3"},{"mesh":2,"name":"Object_4"},{"mesh":3,"name":"Object_5"},{"mesh":4,"name":"Object_6"},{"mesh":5,"name":"Object_7"},{"mesh":6,"name":"Object_8"},{"mesh":7,"name":"Object_9"},{"mesh":8,"name":"Object_10"},{"mesh":9,"name":"Object_11"}],"samplers":[{"magFilter":9729,"minFilter":9987,"wrapS":10497,"wrapT":10497},{"magFilter":9729,"minFilter":9987,"wrapS":33071,"wrapT":33071}],"scene":0,"scenes":[{"name":"Sketchfab_Scene","nodes":[0]}],"textures":[{"sampler":0,"source":0},{"sampler":0,"source":1},{"sampler":0,"source":2},{"sampler":1,"source":3},{"sampler":0,"source":4},{"sampler":0,"source":5},{"sampler":0,"source":6}]}